<svg width="723" height="559" viewBox="0 0 723 559" fill="none" xmlns="http://www.w3.org/2000/svg">
<g clip-path="url(#clip0_0_1)">
<path d="M653.597 534.005H68.5153C58.2705 534.005 48.1562 531.707 38.9173 527.28C29.6783 522.853 21.5501 516.41 15.1311 508.425C8.71221 500.441 4.16608 491.118 1.82757 481.144C-0.510943 471.169 -0.582269 460.797 1.61883 450.792L27.7526 332.005H694.36L720.494 450.792C722.695 460.797 722.624 471.169 720.285 481.144C717.947 491.118 713.4 500.441 706.981 508.425C700.562 516.41 692.434 522.853 683.195 527.28C673.956 531.707 663.842 534.005 653.597 534.005ZM29.36 334.005L3.57193 451.222C1.43515 460.935 1.50445 471.004 3.77471 480.687C6.04498 490.37 10.4584 499.421 16.6899 507.172C22.9214 514.923 30.8123 521.178 39.7815 525.476C48.7507 529.774 58.5696 532.005 68.5153 532.005H653.597C663.543 532.005 673.362 529.774 682.331 525.476C691.3 521.178 699.191 514.923 705.423 507.172C711.654 499.421 716.068 490.37 718.338 480.687C720.608 471.004 720.677 460.935 718.541 451.222L692.753 334.005H29.36Z" fill="#F2F2F2"/>
<path d="M579.306 78.3784L609.996 73.8045L605.149 52.4553L586.749 61.7219L548.788 47.4152C548.247 46.0188 547.311 44.8099 546.095 43.9359C544.879 43.0619 543.435 42.5607 541.939 42.4932C540.443 42.4257 538.96 42.795 537.67 43.556C536.38 44.3169 535.34 45.4367 534.676 46.7788C534.011 48.1209 533.752 49.6273 533.929 51.1143C534.106 52.6013 534.712 54.0047 535.673 55.1533C536.633 56.302 537.908 57.1462 539.34 57.5832C540.772 58.0202 542.301 58.0309 543.739 57.6142L579.306 78.3784Z" fill="#FFB6B6"/>
<path d="M641.684 62.4187C639.311 71.4135 584.636 81.5595 584.664 79.6136C584.741 74.0831 588.257 62.4786 586.249 59.4681C585.101 57.7464 600.562 53.3471 600.562 53.3471C600.562 53.3471 609.095 50.0625 620.158 46.0539C623.265 44.8626 626.622 44.4766 629.918 44.932C633.214 45.3874 636.341 46.6692 639.009 48.6583C639.009 48.6583 644.057 53.4238 641.684 62.4187Z" fill="#A607CA"/>
<path d="M112.767 437H93.7669C89.5235 437 85.4538 438.686 82.4532 441.686C79.4527 444.687 77.7669 448.757 77.7669 453C77.7669 457.243 79.4527 461.313 82.4532 464.314C85.4538 467.314 89.5235 469 93.7669 469H112.767C117.01 469 121.08 467.314 124.081 464.314C127.081 461.313 128.767 457.243 128.767 453C128.767 448.757 127.081 444.687 124.081 441.686C121.08 438.686 117.01 437 112.767 437Z" fill="#E6E6E6"/>
<path d="M173.767 437H154.767C150.523 437 146.454 438.686 143.453 441.686C140.453 444.687 138.767 448.757 138.767 453C138.767 457.243 140.453 461.313 143.453 464.314C146.454 467.314 150.523 469 154.767 469H173.767C178.01 469 182.08 467.314 185.081 464.314C188.081 461.313 189.767 457.243 189.767 453C189.767 448.757 188.081 444.687 185.081 441.686C182.08 438.686 178.01 437 173.767 437Z" fill="#E6E6E6"/>
<path d="M234.767 437H215.767C211.523 437 207.454 438.686 204.453 441.686C201.453 444.687 199.767 448.757 199.767 453C199.767 457.243 201.453 461.313 204.453 464.314C207.454 467.314 211.523 469 215.767 469H234.767C239.01 469 243.08 467.314 246.081 464.314C249.081 461.313 250.767 457.243 250.767 453C250.767 448.757 249.081 444.687 246.081 441.686C243.08 438.686 239.01 437 234.767 437Z" fill="#E6E6E6"/>
<path d="M295.767 437H276.767C272.523 437 268.454 438.686 265.453 441.686C262.453 444.687 260.767 448.757 260.767 453C260.767 457.243 262.453 461.313 265.453 464.314C268.454 467.314 272.523 469 276.767 469H295.767C300.01 469 304.08 467.314 307.081 464.314C310.081 461.313 311.767 457.243 311.767 453C311.767 448.757 310.081 444.687 307.081 441.686C304.08 438.686 300.01 437 295.767 437Z" fill="#A607CA"/>
<path d="M356.767 437H337.767C333.523 437 329.454 438.686 326.453 441.686C323.453 444.687 321.767 448.757 321.767 453C321.767 457.243 323.453 461.313 326.453 464.314C329.454 467.314 333.523 469 337.767 469H356.767C361.01 469 365.08 467.314 368.081 464.314C371.081 461.313 372.767 457.243 372.767 453C372.767 448.757 371.081 444.687 368.081 441.686C365.08 438.686 361.01 437 356.767 437Z" fill="#E6E6E6"/>
<path d="M417.767 437H398.767C394.523 437 390.454 438.686 387.453 441.686C384.453 444.687 382.767 448.757 382.767 453C382.767 457.243 384.453 461.313 387.453 464.314C390.454 467.314 394.523 469 398.767 469H417.767C422.01 469 426.08 467.314 429.081 464.314C432.081 461.313 433.767 457.243 433.767 453C433.767 448.757 432.081 444.687 429.081 441.686C426.08 438.686 422.01 437 417.767 437Z" fill="#E6E6E6"/>
<path d="M478.767 437H459.767C455.523 437 451.454 438.686 448.453 441.686C445.453 444.687 443.767 448.757 443.767 453C443.767 457.243 445.453 461.313 448.453 464.314C451.454 467.314 455.523 469 459.767 469H478.767C483.01 469 487.08 467.314 490.081 464.314C493.081 461.313 494.767 457.243 494.767 453C494.767 448.757 493.081 444.687 490.081 441.686C487.08 438.686 483.01 437 478.767 437Z" fill="#E6E6E6"/>
<path d="M539.767 437H520.767C516.523 437 512.454 438.686 509.453 441.686C506.453 444.687 504.767 448.757 504.767 453C504.767 457.243 506.453 461.313 509.453 464.314C512.454 467.314 516.523 469 520.767 469H539.767C544.01 469 548.08 467.314 551.081 464.314C554.081 461.313 555.767 457.243 555.767 453C555.767 448.757 554.081 444.687 551.081 441.686C548.08 438.686 544.01 437 539.767 437Z" fill="#E6E6E6"/>
<path d="M600.767 437H581.767C577.523 437 573.454 438.686 570.453 441.686C567.453 444.687 565.767 448.757 565.767 453C565.767 457.243 567.453 461.313 570.453 464.314C573.454 467.314 577.523 469 581.767 469H600.767C605.01 469 609.08 467.314 612.081 464.314C615.081 461.313 616.767 457.243 616.767 453C616.767 448.757 615.081 444.687 612.081 441.686C609.08 438.686 605.01 437 600.767 437Z" fill="#E6E6E6"/>
<path d="M112.767 370H93.7669C89.5235 370 85.4538 371.686 82.4532 374.686C79.4527 377.687 77.7669 381.757 77.7669 386C77.7669 390.243 79.4527 394.313 82.4532 397.314C85.4538 400.314 89.5235 402 93.7669 402H112.767C117.01 402 121.08 400.314 124.081 397.314C127.081 394.313 128.767 390.243 128.767 386C128.767 381.757 127.081 377.687 124.081 374.686C121.08 371.686 117.01 370 112.767 370Z" fill="#E6E6E6"/>
<path d="M173.767 370H154.767C150.523 370 146.454 371.686 143.453 374.686C140.453 377.687 138.767 381.757 138.767 386C138.767 390.243 140.453 394.313 143.453 397.314C146.454 400.314 150.523 402 154.767 402H173.767C178.01 402 182.08 400.314 185.081 397.314C188.081 394.313 189.767 390.243 189.767 386C189.767 381.757 188.081 377.687 185.081 374.686C182.08 371.686 178.01 370 173.767 370Z" fill="#E6E6E6"/>
<path d="M234.767 370H215.767C211.523 370 207.454 371.686 204.453 374.686C201.453 377.687 199.767 381.757 199.767 386C199.767 390.243 201.453 394.313 204.453 397.314C207.454 400.314 211.523 402 215.767 402H234.767C239.01 402 243.08 400.314 246.081 397.314C249.081 394.313 250.767 390.243 250.767 386C250.767 381.757 249.081 377.687 246.081 374.686C243.08 371.686 239.01 370 234.767 370Z" fill="#E6E6E6"/>
<path d="M295.767 370H276.767C272.523 370 268.454 371.686 265.453 374.686C262.453 377.687 260.767 381.757 260.767 386C260.767 390.243 262.453 394.313 265.453 397.314C268.454 400.314 272.523 402 276.767 402H295.767C300.01 402 304.08 400.314 307.081 397.314C310.081 394.313 311.767 390.243 311.767 386C311.767 381.757 310.081 377.687 307.081 374.686C304.08 371.686 300.01 370 295.767 370Z" fill="#E6E6E6"/>
<path d="M356.767 370H337.767C333.523 370 329.454 371.686 326.453 374.686C323.453 377.687 321.767 381.757 321.767 386C321.767 390.243 323.453 394.313 326.453 397.314C329.454 400.314 333.523 402 337.767 402H356.767C361.01 402 365.08 400.314 368.081 397.314C371.081 394.313 372.767 390.243 372.767 386C372.767 381.757 371.081 377.687 368.081 374.686C365.08 371.686 361.01 370 356.767 370Z" fill="#E6E6E6"/>
<path d="M417.767 370H398.767C394.523 370 390.454 371.686 387.453 374.686C384.453 377.687 382.767 381.757 382.767 386C382.767 390.243 384.453 394.313 387.453 397.314C390.454 400.314 394.523 402 398.767 402H417.767C422.01 402 426.08 400.314 429.081 397.314C432.081 394.313 433.767 390.243 433.767 386C433.767 381.757 432.081 377.687 429.081 374.686C426.08 371.686 422.01 370 417.767 370Z" fill="#E6E6E6"/>
<path d="M478.767 370H459.767C455.523 370 451.454 371.686 448.453 374.686C445.453 377.687 443.767 381.757 443.767 386C443.767 390.243 445.453 394.313 448.453 397.314C451.454 400.314 455.523 402 459.767 402H478.767C483.01 402 487.08 400.314 490.081 397.314C493.081 394.313 494.767 390.243 494.767 386C494.767 381.757 493.081 377.687 490.081 374.686C487.08 371.686 483.01 370 478.767 370Z" fill="#E6E6E6"/>
<path d="M539.767 370H520.767C516.523 370 512.454 371.686 509.453 374.686C506.453 377.687 504.767 381.757 504.767 386C504.767 390.243 506.453 394.313 509.453 397.314C512.454 400.314 516.523 402 520.767 402H539.767C544.01 402 548.08 400.314 551.081 397.314C554.081 394.313 555.767 390.243 555.767 386C555.767 381.757 554.081 377.687 551.081 374.686C548.08 371.686 544.01 370 539.767 370Z" fill="#E6E6E6"/>
<path d="M600.767 370H581.767C577.523 370 573.454 371.686 570.453 374.686C567.453 377.687 565.767 381.757 565.767 386C565.767 390.243 567.453 394.313 570.453 397.314C573.454 400.314 577.523 402 581.767 402H600.767C605.01 402 609.08 400.314 612.081 397.314C615.081 394.313 616.767 390.243 616.767 386C616.767 381.757 615.081 377.687 612.081 374.686C609.08 371.686 605.01 370 600.767 370Z" fill="#E6E6E6"/>
<path d="M141.267 404.5H122.267C118.023 404.5 113.954 406.186 110.953 409.186C107.953 412.187 106.267 416.257 106.267 420.5C106.267 424.743 107.953 428.813 110.953 431.814C113.954 434.814 118.023 436.5 122.267 436.5H141.267C145.51 436.5 149.58 434.814 152.581 431.814C155.581 428.813 157.267 424.743 157.267 420.5C157.267 416.257 155.581 412.187 152.581 409.186C149.58 406.186 145.51 404.5 141.267 404.5Z" fill="#E6E6E6"/>
<path d="M202.267 404.5H183.267C179.023 404.5 174.954 406.186 171.953 409.186C168.953 412.187 167.267 416.257 167.267 420.5C167.267 424.743 168.953 428.813 171.953 431.814C174.954 434.814 179.023 436.5 183.267 436.5H202.267C206.51 436.5 210.58 434.814 213.581 431.814C216.581 428.813 218.267 424.743 218.267 420.5C218.267 416.257 216.581 412.187 213.581 409.186C210.58 406.186 206.51 404.5 202.267 404.5Z" fill="#E6E6E6"/>
<path d="M263.267 404.5H244.267C240.023 404.5 235.954 406.186 232.953 409.186C229.953 412.187 228.267 416.257 228.267 420.5C228.267 424.743 229.953 428.813 232.953 431.814C235.954 434.814 240.023 436.5 244.267 436.5H263.267C267.51 436.5 271.58 434.814 274.581 431.814C277.581 428.813 279.267 424.743 279.267 420.5C279.267 416.257 277.581 412.187 274.581 409.186C271.58 406.186 267.51 404.5 263.267 404.5Z" fill="#E6E6E6"/>
<path d="M324.267 404.5H305.267C301.023 404.5 296.954 406.186 293.953 409.186C290.953 412.187 289.267 416.257 289.267 420.5C289.267 424.743 290.953 428.813 293.953 431.814C296.954 434.814 301.023 436.5 305.267 436.5H324.267C328.51 436.5 332.58 434.814 335.581 431.814C338.581 428.813 340.267 424.743 340.267 420.5C340.267 416.257 338.581 412.187 335.581 409.186C332.58 406.186 328.51 404.5 324.267 404.5Z" fill="#E6E6E6"/>
<path d="M385.267 404.5H366.267C362.023 404.5 357.954 406.186 354.953 409.186C351.953 412.187 350.267 416.257 350.267 420.5C350.267 424.743 351.953 428.813 354.953 431.814C357.954 434.814 362.023 436.5 366.267 436.5H385.267C389.51 436.5 393.58 434.814 396.581 431.814C399.581 428.813 401.267 424.743 401.267 420.5C401.267 416.257 399.581 412.187 396.581 409.186C393.58 406.186 389.51 404.5 385.267 404.5Z" fill="#E6E6E6"/>
<path d="M446.267 404.5H427.267C423.023 404.5 418.954 406.186 415.953 409.186C412.953 412.187 411.267 416.257 411.267 420.5C411.267 424.743 412.953 428.813 415.953 431.814C418.954 434.814 423.023 436.5 427.267 436.5H446.267C450.51 436.5 454.58 434.814 457.581 431.814C460.581 428.813 462.267 424.743 462.267 420.5C462.267 416.257 460.581 412.187 457.581 409.186C454.58 406.186 450.51 404.5 446.267 404.5Z" fill="#E6E6E6"/>
<path d="M507.267 404.5H488.267C484.023 404.5 479.954 406.186 476.953 409.186C473.953 412.187 472.267 416.257 472.267 420.5C472.267 424.743 473.953 428.813 476.953 431.814C479.954 434.814 484.023 436.5 488.267 436.5H507.267C511.51 436.5 515.58 434.814 518.581 431.814C521.581 428.813 523.267 424.743 523.267 420.5C523.267 416.257 521.581 412.187 518.581 409.186C515.58 406.186 511.51 404.5 507.267 404.5Z" fill="#A607CA"/>
<path d="M568.267 404.5H549.267C545.023 404.5 540.954 406.186 537.953 409.186C534.953 412.187 533.267 416.257 533.267 420.5C533.267 424.743 534.953 428.813 537.953 431.814C540.954 434.814 545.023 436.5 549.267 436.5H568.267C572.51 436.5 576.58 434.814 579.581 431.814C582.581 428.813 584.267 424.743 584.267 420.5C584.267 416.257 582.581 412.187 579.581 409.186C576.58 406.186 572.51 404.5 568.267 404.5Z" fill="#E6E6E6"/>
<path d="M629.267 404.5H610.267C606.023 404.5 601.954 406.186 598.953 409.186C595.953 412.187 594.267 416.257 594.267 420.5C594.267 424.743 595.953 428.813 598.953 431.814C601.954 434.814 606.023 436.5 610.267 436.5H629.267C633.51 436.5 637.58 434.814 640.581 431.814C643.581 428.813 645.267 424.743 645.267 420.5C645.267 416.257 643.581 412.187 640.581 409.186C637.58 406.186 633.51 404.5 629.267 404.5Z" fill="#E6E6E6"/>
<path d="M558.899 333H164.135C157.873 332.993 151.87 330.502 147.442 326.075C143.015 321.647 140.524 315.644 140.517 309.382L140.543 309.156C154.509 248.729 154.503 172.975 140.526 70.7539L140.517 70.6182C140.524 64.3564 143.015 58.3532 147.442 53.9255C151.87 49.4978 157.873 47.0071 164.135 47H558.899C565.161 47.0071 571.164 49.4978 575.591 53.9255C580.019 58.3532 582.51 64.3565 582.517 70.6182L582.495 70.8272C565.604 149.378 565.604 230.622 582.495 309.173L582.517 309.382C582.51 315.644 580.019 321.647 575.592 326.075C571.164 330.502 565.161 332.993 558.899 333Z" fill="white"/>
<path d="M558.899 333H164.135C157.873 332.993 151.87 330.502 147.442 326.075C143.015 321.647 140.524 315.644 140.517 309.382L140.543 309.156C154.509 248.729 154.503 172.975 140.526 70.7539L140.517 70.6182C140.524 64.3564 143.015 58.3532 147.442 53.9255C151.87 49.4978 157.873 47.0071 164.135 47H558.899C565.161 47.0071 571.164 49.4978 575.591 53.9255C580.019 58.3532 582.51 64.3565 582.517 70.6182L582.495 70.8272C565.604 149.378 565.604 230.622 582.495 309.173L582.517 309.382C582.51 315.644 580.019 321.647 575.592 326.075C571.164 330.502 565.161 332.993 558.899 333ZM142.517 309.494C142.554 315.206 144.846 320.672 148.896 324.701C152.945 328.729 158.423 330.993 164.135 331H558.899C564.612 330.993 570.091 328.728 574.141 324.698C578.191 320.668 580.482 315.2 580.516 309.486C563.596 230.727 563.596 149.273 580.516 70.5137C580.482 64.8004 578.191 59.3324 574.141 55.3022C570.091 51.2719 564.612 49.0065 558.899 49H164.135C158.415 49.0065 152.931 51.277 148.88 55.3152C144.829 59.3534 142.541 64.831 142.517 70.5508C156.51 172.919 156.511 248.856 142.517 309.494Z" fill="#E6E6E6"/>
<path d="M517.517 117.5H198.517C196.793 117.5 195.14 116.815 193.921 115.596C192.702 114.377 192.017 112.724 192.017 111C192.017 109.276 192.702 107.623 193.921 106.404C195.14 105.185 196.793 104.5 198.517 104.5H517.517C519.241 104.5 520.894 105.185 522.113 106.404C523.332 107.623 524.017 109.276 524.017 111C524.017 112.724 523.332 114.377 522.113 115.596C520.894 116.815 519.241 117.5 517.517 117.5Z" fill="#E6E6E6"/>
<path d="M517.517 149H198.517C196.793 149 195.14 148.315 193.921 147.096C192.702 145.877 192.017 144.224 192.017 142.5C192.017 140.776 192.702 139.123 193.921 137.904C195.14 136.685 196.793 136 198.517 136H517.517C519.241 136 520.894 136.685 522.113 137.904C523.332 139.123 524.017 140.776 524.017 142.5C524.017 144.224 523.332 145.877 522.113 147.096C520.894 148.315 519.241 149 517.517 149Z" fill="#E6E6E6"/>
<path d="M517.517 180.5H198.517C196.793 180.5 195.14 179.815 193.921 178.596C192.702 177.377 192.017 175.724 192.017 174C192.017 172.276 192.702 170.623 193.921 169.404C195.14 168.185 196.793 167.5 198.517 167.5H517.517C519.241 167.5 520.894 168.185 522.113 169.404C523.332 170.623 524.017 172.276 524.017 174C524.017 175.724 523.332 177.377 522.113 178.596C520.894 179.815 519.241 180.5 517.517 180.5Z" fill="#E6E6E6"/>
<path d="M517.517 212H198.517C196.793 212 195.14 211.315 193.921 210.096C192.702 208.877 192.017 207.224 192.017 205.5C192.017 203.776 192.702 202.123 193.921 200.904C195.14 199.685 196.793 199 198.517 199H517.517C519.241 199 520.894 199.685 522.113 200.904C523.332 202.123 524.017 203.776 524.017 205.5C524.017 207.224 523.332 208.877 522.113 210.096C520.894 211.315 519.241 212 517.517 212Z" fill="#E6E6E6"/>
<path d="M517.517 243.5H198.517C196.793 243.5 195.14 242.815 193.921 241.596C192.702 240.377 192.017 238.724 192.017 237C192.017 235.276 192.702 233.623 193.921 232.404C195.14 231.185 196.793 230.5 198.517 230.5H517.517C519.241 230.5 520.894 231.185 522.113 232.404C523.332 233.623 524.017 235.276 524.017 237C524.017 238.724 523.332 240.377 522.113 241.596C520.894 242.815 519.241 243.5 517.517 243.5Z" fill="#E6E6E6"/>
<path d="M341.517 275H198.517C196.793 275 195.14 274.315 193.921 273.096C192.702 271.877 192.017 270.224 192.017 268.5C192.017 266.776 192.702 265.123 193.921 263.904C195.14 262.685 196.793 262 198.517 262H341.517C343.241 262 344.894 262.685 346.113 263.904C347.332 265.123 348.017 266.776 348.017 268.5C348.017 270.224 347.332 271.877 346.113 273.096C344.894 274.315 343.241 275 341.517 275Z" fill="#A607CA"/>
<path d="M359.699 324.5H333.375C332.976 324.496 332.583 324.403 332.225 324.226C331.866 324.05 331.553 323.795 331.306 323.48C331.016 323.11 330.812 322.681 330.708 322.222C330.604 321.763 330.603 321.287 330.706 320.828L343.093 264.782C343.191 264.153 343.509 263.579 343.989 263.162C344.47 262.744 345.083 262.51 345.719 262.5C346.356 262.49 346.975 262.706 347.468 263.109C347.961 263.512 348.296 264.076 348.413 264.701L362.349 320.746C362.466 321.21 362.477 321.694 362.38 322.162C362.283 322.63 362.082 323.071 361.792 323.45C361.546 323.773 361.23 324.036 360.867 324.218C360.504 324.4 360.104 324.497 359.699 324.5Z" fill="#E6E6E6"/>
<path d="M690.517 345.5H32.5169C28.9365 345.5 25.5027 344.078 22.971 341.546C20.4393 339.014 19.0169 335.58 19.0169 332C19.0169 328.42 20.4393 324.986 22.971 322.454C25.5027 319.922 28.9365 318.5 32.5169 318.5H690.517C694.097 318.5 697.531 319.922 700.063 322.454C702.595 324.986 704.017 328.42 704.017 332C704.017 335.58 702.595 339.014 700.063 341.546C697.531 344.078 694.097 345.5 690.517 345.5Z" fill="#F2F2F2"/>
<path d="M607.193 311.693L597.591 311.692L593.024 274.657L607.195 274.658L607.193 311.693Z" fill="#FFB6B6"/>
<path d="M609.642 321L578.682 320.999V320.607C578.682 317.411 579.952 314.346 582.212 312.087C584.471 309.827 587.536 308.557 590.732 308.557L596.388 304.267L606.94 308.558L609.642 308.558L609.642 321Z" fill="#2F2E41"/>
<path d="M693.95 299.209L685.357 303.492L664.747 272.384L677.431 266.063L693.95 299.209Z" fill="#FFB6B6"/>
<path d="M700.294 306.447L672.585 320.257L672.41 319.906C670.985 317.046 670.754 313.737 671.768 310.706C672.783 307.675 674.959 305.172 677.819 303.746L680.968 297.383L692.325 296.517L694.744 295.311L700.294 306.447Z" fill="#2F2E41"/>
<path d="M602.939 143.492L655.884 145.346L659.843 152.698C659.843 152.698 663.989 182.777 661.865 184.9C659.742 187.024 658.68 187.024 659.742 190.74C660.804 194.456 663.549 229.962 663.549 229.962C663.549 229.962 685.42 275.328 686.482 277.983C687.543 280.637 688.605 279.575 687.543 280.637C686.603 281.651 685.717 282.714 684.889 283.822H667.585C667.585 283.822 658.267 260.32 649.739 251.229C642.207 243.202 637.438 232.979 636.126 222.051L628.952 188.086L613.556 240.111C613.556 240.111 610.902 291.605 611.433 294.26L611.964 296.914L591.568 297.142C591.568 297.142 589.444 292.667 590.506 291.074C591.568 289.482 591.504 289.917 590.209 287.31C588.914 284.704 589.444 280.288 589.444 280.288C589.444 280.288 597.099 175.876 597.099 174.283C597.139 173.463 596.988 172.646 596.658 171.895V169.733L598.692 162.073L602.939 143.492Z" fill="#2F2E41"/>
<path d="M625.767 47.4301C622.32 49.4789 620.259 53.2433 619.075 57.0738C616.884 64.1656 615.566 71.4979 615.148 78.9087L613.898 101.095C613.275 115.414 609.293 129.385 602.271 141.879C601.75 142.83 601.454 143.888 601.403 144.971C601.352 146.054 601.55 147.135 601.98 148.13C602.41 149.126 603.061 150.01 603.885 150.716C604.708 151.422 605.681 151.93 606.731 152.203C625.92 157.239 662.264 150.917 662.264 150.917C662.264 150.917 663.812 150.401 662.264 148.853C660.716 147.305 657.243 139.564 657.243 139.564L661.371 112.447L666.531 57.7503C660.339 50.0102 647.886 45.4474 647.886 45.4474L644.668 39.6555L628.579 40.9425L625.767 47.4301Z" fill="#A607CA"/>
<path d="M635.979 36.2896C644.515 36.2896 651.435 29.37 651.435 20.8342C651.435 12.2984 644.515 5.37881 635.979 5.37881C627.444 5.37881 620.524 12.2984 620.524 20.8342C620.524 29.37 627.444 36.2896 635.979 36.2896Z" fill="#FFB8B8"/>
<path d="M655.023 19.9165C654.333 23.0479 653.088 26.0306 651.347 28.7235C650.885 29.6417 650.194 30.4256 649.342 31C648.91 31.277 648.395 31.3938 647.886 31.3302C647.378 31.2666 646.907 31.0266 646.557 30.6519L646.181 30.3456C646.918 29.8912 647.577 29.3198 648.13 28.6538C648.405 28.3196 648.595 27.9248 648.686 27.5022C648.777 27.0796 648.765 26.6414 648.653 26.2241C648.519 25.8125 648.231 25.4687 647.85 25.2649C647.468 25.0611 647.022 25.0131 646.606 25.1311C645.701 25.4861 645.151 26.795 644.204 26.5931C643.438 26.426 643.278 25.4165 643.278 24.6229C643.306 20.4735 641.301 14.5766 639.748 14.7576C638.18 14.8434 636.609 14.6332 635.118 14.138C633.626 13.642 632.051 13.441 630.482 13.5462C630.37 13.5602 630.259 13.581 630.14 13.6019C629.889 12.8136 629.543 12.0585 629.11 11.3532C629.159 12.2046 629.117 13.0588 628.985 13.9013C627.736 14.416 626.446 14.8236 625.128 15.1196C623.694 15.3216 620.54 19.6102 620.394 19.1715C620.142 18.3832 619.796 17.6281 619.363 16.9228C619.412 17.7742 619.37 18.6284 619.238 19.4709C619.231 19.5057 619.231 19.5336 619.224 19.5684C618.528 18.6424 618.103 17.5146 618.34 18.3779C616.007 13.1007 616.913 9.32029 620.582 4.87153C621.297 3.91496 622.243 3.15557 623.332 2.66453C623.877 2.42503 624.474 2.32997 625.067 2.38851C625.66 2.44705 626.227 2.65721 626.715 2.99874C628.212 1.62675 630.048 0.679906 632.033 0.256354C634.019 -0.167197 636.082 -0.0520553 638.008 0.58985C641.83 1.91962 644.775 2.69937 645.36 6.70951C646.954 6.53512 648.566 6.81515 650.008 7.51729C651.451 8.21944 652.665 9.31509 653.512 10.6778C655.159 13.4579 655.699 16.7565 655.023 19.9165Z" fill="#2F2E41"/>
<path d="M671.517 120.349L671.542 89.3191L649.71 90.9491L656.147 110.519L636.373 145.941C634.912 146.269 633.577 147.014 632.533 148.088C631.488 149.161 630.779 150.514 630.49 151.984C630.202 153.453 630.347 154.975 630.908 156.363C631.47 157.752 632.423 158.947 633.652 159.802C634.881 160.658 636.332 161.138 637.829 161.184C639.326 161.229 640.803 160.838 642.082 160.058C643.36 159.278 644.384 158.143 645.028 156.791C645.673 155.439 645.91 153.929 645.711 152.445L671.517 120.349Z" fill="#FFB6B6"/>
<path d="M664.978 56.2936C673.522 59.9732 675.453 115.548 673.533 115.233C668.075 114.336 657.119 109.14 653.844 110.679C651.972 111.56 649.912 95.6173 649.912 95.6173C649.912 95.6173 647.929 86.6913 645.604 75.1564C644.886 71.9075 645.002 68.5298 645.941 65.3378C646.88 62.1457 648.611 59.2431 650.973 56.9001C650.973 56.9001 656.435 52.614 664.978 56.2936Z" fill="#A607CA"/>
<path d="M137.338 399.191C136.772 398.674 136.326 398.04 136.032 397.333C135.738 396.626 135.602 395.863 135.635 395.098C135.668 394.333 135.868 393.584 136.221 392.904C136.574 392.225 137.072 391.631 137.68 391.165L131.814 373.496L141.157 376.006L145.295 392.4C146.01 393.473 146.308 394.77 146.13 396.048C145.953 397.325 145.313 398.493 144.333 399.33C143.352 400.167 142.098 400.615 140.809 400.589C139.52 400.564 138.285 400.066 137.338 399.191Z" fill="#FFB6B6"/>
<path d="M154.271 303.194C155.821 304.083 164.993 301.881 166.784 302.507C165.796 308.54 171.166 306.276 165.334 314.2C159.502 322.123 147.756 345.879 145.087 354.757C142.419 363.636 145.06 376.148 144.66 380.356C144.467 382.794 144.479 385.244 144.696 387.68C141.545 387.641 138.439 388.295 135.239 387.877C131.826 378.22 129.532 364.474 127.974 356.877C126.415 349.28 126.358 352.493 127.073 348.694C127.788 344.896 127.961 347.656 127.21 344.022C126.459 340.388 129.495 335.822 132.301 333.218C133.51 329.74 135.073 326.496 136.271 323.053C145.046 315.398 145.623 310.976 154.271 303.194Z" fill="#A607CA"/>
<path d="M236.404 387.99C235.646 388.099 234.873 388.04 234.14 387.817C233.407 387.595 232.732 387.215 232.162 386.703C231.592 386.192 231.141 385.562 230.841 384.857C230.541 384.152 230.399 383.39 230.425 382.625L213.057 375.923L220.933 370.306L236.219 377.531C237.502 377.66 238.693 378.256 239.566 379.204C240.439 380.153 240.934 381.389 240.957 382.678C240.98 383.968 240.529 385.22 239.69 386.199C238.851 387.178 237.682 387.816 236.404 387.99Z" fill="#FFB6B6"/>
<path d="M173.054 313.903C174.726 313.271 178.855 304.79 180.478 303.806C184.507 308.404 186.173 302.819 188.583 312.357C190.993 321.895 201.867 346.063 207.026 353.766C212.184 361.469 223.523 367.383 226.517 370.366C228.277 372.065 230.176 373.613 232.195 374.993C230.161 377.401 228.692 380.214 226.336 382.419C216.711 378.916 204.64 371.951 197.785 368.326C190.93 364.7 193.374 366.786 190.895 363.82C188.417 360.854 190.658 362.475 187.375 360.744C184.092 359.014 182.497 353.768 182.27 349.948C180.353 346.803 178.842 343.534 176.946 340.422C176.613 328.782 173.566 325.526 173.054 313.903Z" fill="#A607CA"/>
<path d="M186.123 366.39L194.791 405.071L139.247 401.616L154.351 363.627L186.123 366.39Z" fill="#FFB6B6"/>
<path d="M176.874 544.917L183.113 544.916L186.081 520.851H176.873L176.874 544.917Z" fill="#FFB6B6"/>
<path d="M174.761 541.839L184.624 541.25V545.476L194.001 551.952C194.464 552.272 194.813 552.731 194.997 553.263C195.18 553.795 195.189 554.372 195.021 554.909C194.854 555.447 194.519 555.916 194.065 556.25C193.612 556.584 193.064 556.763 192.501 556.763H180.759L178.735 552.583L177.945 556.763H173.517L174.761 541.839Z" fill="#2F2E41"/>
<path d="M117.905 541.813L124.002 543.135L132.005 520.246L123.006 518.294L117.905 541.813Z" fill="#FFB6B6"/>
<path d="M116.492 538.357L126.256 539.872L125.36 544.002L133.151 552.319C133.536 552.73 133.779 553.252 133.846 553.811C133.912 554.37 133.798 554.936 133.521 555.425C133.243 555.915 132.816 556.303 132.303 556.533C131.789 556.763 131.215 556.822 130.665 556.703L119.19 554.214L118.098 549.7L116.439 553.617L112.113 552.678L116.492 538.357Z" fill="#2F2E41"/>
<path d="M196.209 437.416C191.83 461.481 190.735 471.871 190.735 471.871C190.735 471.871 194.019 475.7 191.83 477.889C189.641 480.078 191.83 484.451 191.83 484.451L186.907 537.504L182.944 536.861L173.398 535.327L169.955 534.77L172.144 485.001C172.144 485.001 169.955 480.623 171.049 479.528C172.144 478.433 169.955 471.871 169.955 471.871L167.221 419.913L150.263 476.794C150.263 476.794 151.908 478.984 150.263 480.623C148.624 482.262 145.346 490.469 145.346 490.469L135.261 525.756L134.405 528.752L129.145 527.768L123.421 526.691L122.369 526.496L120.498 526.141L119.293 525.915L118.883 525.841L116.902 525.468L117.501 522.808L117.813 521.407L126.344 483.515L126.54 482.641L126.748 481.717C126.748 481.717 125.653 478.984 127.292 477.339C127.772 476.837 128.122 476.227 128.313 475.56C128.504 474.893 128.529 474.189 128.387 473.51C128.333 473.453 128.284 473.392 128.24 473.327C128.047 473.061 127.913 472.756 127.849 472.434C127.773 471.92 127.834 471.395 128.025 470.912C128.216 470.429 128.531 470.005 128.937 469.682C129.249 469.351 129.511 468.976 129.714 468.569C131.378 465.419 132.215 458.747 132.215 458.747C132.215 458.747 133.695 405.903 138.539 397.83C138.796 397.408 143.938 389.307 144.207 389.142C149.674 385.864 192.27 390.392 192.27 390.392C192.27 390.392 194.849 397.323 194.966 398.044C195.596 402.099 199.921 417.002 196.209 437.416Z" fill="#2F2E41"/>
<path d="M183.266 310.128C183.266 310.128 184.188 305.343 175.331 296.487C170.642 294.924 162.518 295.835 159.702 296.487C146.678 313.679 149.01 310.646 145.62 320.251C144.724 322.412 144.405 324.768 144.692 327.089C146.254 334.904 148.792 375.017 148.271 377.101C147.75 379.185 144.103 381.79 147.75 381.79C151.397 381.79 198.425 380.967 197.383 379.404C196.341 377.841 183.266 310.128 183.266 310.128Z" fill="#A607CA"/>
<path d="M168.577 293.482C176.826 293.482 183.514 286.795 183.514 278.545C183.514 270.295 176.826 263.607 168.577 263.607C160.327 263.607 153.639 270.295 153.639 278.545C153.639 286.795 160.327 293.482 168.577 293.482Z" fill="#FFB6B6"/>
<path d="M155.921 284.193C155.84 286.004 154.704 287.566 153.828 289.152C152.299 291.983 151.483 295.143 151.451 298.359C151.419 301.576 152.172 304.752 153.644 307.612C154.863 309.925 156.551 311.989 157.519 314.418C157.985 315.443 158.22 316.559 158.21 317.685C158.199 318.812 157.943 319.922 157.458 320.939C154.84 318.42 153.562 319.75 150.589 317.551C151.758 320.828 150.762 320.935 151.935 324.208C146.889 325.649 141.841 327.093 136.792 328.542C139.892 326.025 142.081 322.562 143.025 318.681C143.968 314.801 143.612 310.719 142.013 307.06C140.167 303.102 136.868 299.839 135.666 295.633C135.012 293.357 135.024 290.941 135.7 288.671C136.376 286.401 137.688 284.372 139.481 282.825C141.274 281.277 143.472 280.275 145.816 279.938C148.16 279.6 150.552 279.941 152.709 280.92C154.406 280.435 156.003 282.41 155.921 284.193Z" fill="#2F2E41"/>
<path d="M174.683 261.803C172.674 257.413 167.374 258.306 162.582 258.885C160.189 259.255 157.922 260.202 155.978 261.645C154.033 263.088 152.47 264.983 151.423 267.166C149.375 271.591 148.983 276.605 150.319 281.294C151.036 284.488 152.747 287.372 155.206 289.533C157.737 291.568 169.635 296.382 170.625 292.237C169.387 297.644 166.166 300.723 169.853 304.868C171.763 299.131 179.838 293.682 181.748 287.946C182.035 287.082 180.855 276.933 181.142 276.069C181.748 274.249 182.355 272.426 182.793 270.558C183.343 268.212 183.555 265.521 182.097 263.602C180.64 261.682 176.968 261.608 176.232 263.902" fill="#2F2E41"/>
<path d="M172.278 280.07L171.64 276.005C172.074 270.95 171.365 262.908 174.683 261.803L176.712 263.832C175.429 264.259 172.988 271.819 172.278 280.07Z" fill="#FF6584"/>
<path d="M317.789 556.961C317.789 557.117 317.759 557.272 317.699 557.417C317.64 557.561 317.552 557.693 317.441 557.803C317.331 557.914 317.199 558.002 317.055 558.061C316.91 558.121 316.755 558.151 316.599 558.151H36.3089C35.9933 558.151 35.6906 558.025 35.4675 557.802C35.2443 557.579 35.1189 557.276 35.1189 556.961C35.1189 556.645 35.2443 556.343 35.4675 556.119C35.6906 555.896 35.9933 555.771 36.3089 555.771H316.599C316.755 555.77 316.91 555.801 317.055 555.86C317.199 555.92 317.331 556.008 317.441 556.118C317.552 556.229 317.64 556.36 317.699 556.505C317.759 556.65 317.789 556.804 317.789 556.961Z" fill="#CCCCCC"/>
<path d="M464.517 483.005H258.517C254.273 483.005 250.204 484.69 247.203 487.691C244.203 490.692 242.517 494.761 242.517 499.005C242.517 503.248 244.203 507.318 247.203 510.318C250.204 513.319 254.273 515.005 258.517 515.005H464.517C468.76 515.005 472.83 513.319 475.831 510.318C478.831 507.318 480.517 503.248 480.517 499.005C480.517 494.761 478.831 490.692 475.831 487.691C472.83 484.69 468.76 483.005 464.517 483.005Z" fill="#E6E6E6"/>
</g>
<defs>
<clipPath id="clip0_0_1">
<rect width="722.113" height="558.151" fill="white"/>
</clipPath>
</defs>
</svg>
